<svg xmlns="http://www.w3.org/2000/svg" viewBox="0 0 64 63" width="64" height="63">
  <path d="M 61.00 61.50 L 58.00 61.50 L 56.50 60.00 L 56.50 40.00 L 54.00 37.50 L 41.00 37.50 L 40.50 38.00 L 41.00 38.50 L 44.00 38.50 L 45.00 39.50 L 47.00 39.50 L 48.00 40.50 L 51.00 40.50 L 52.00 41.50 L 53.00 41.50 L 53.50 42.00 L 53.50 46.00 L 53.00 46.50 L 50.00 46.50 L 49.00 45.50 L 46.00 45.50 L 45.00 44.50 L 42.00 44.50 L 41.00 43.50 L 39.00 43.50 L 38.00 42.50 L 29.00 42.50 L 26.00 42.50 L 25.00 43.50 L 22.00 43.50 L 21.00 44.50 L 18.00 44.50 L 17.00 45.50 L 14.00 45.50 L 13.00 46.50 L 10.00 46.50 L 9.50 46.00 L 9.50 43.00 L 9.50 42.00 L 10.00 41.50 L 12.00 41.50 L 13.00 40.50 L 15.00 40.50 L 16.00 39.50 L 19.00 39.50 L 20.00 38.50 L 23.00 38.50 L 23.50 38.00 L 23.00 37.50 L 10.00 37.50 L 7.50 40.00 L 7.50 41.00 L 6.50 42.00 L 6.50 61.00 L 6.00 61.50 L 3.00 61.50 L 1.50 60.00 L 1.50 41.00 L 2.50 40.00 L 2.50 38.00 L 3.50 37.00 L 3.50 36.00 L 5.00 34.50 L 6.00 34.50 L 7.00 33.50 L 8.00 33.50 L 9.00 32.50 L 25.00 32.50 L 26.50 34.00 L 26.50 35.00 L 25.50 36.00 L 25.50 37.00 L 26.00 37.50 L 28.50 35.00 L 28.50 34.00 L 29.50 33.00 L 29.50 31.00 L 28.00 29.50 L 2.00 29.50 L 0.50 28.00 L 0.50 26.00 L 2.00 24.50 L 29.00 24.50 L 29.50 24.00 L 29.50 22.00 L 29.00 21.50 L 2.00 21.50 L 0.50 20.00 L 0.50 19.00 L 0.50 18.00 L 2.00 16.50 L 29.00 16.50 L 29.50 16.00 L 29.50 15.00 L 29.00 14.50 L 9.00 14.50 L 8.00 13.50 L 6.00 13.50 L 5.00 12.50 L 4.00 12.50 L 2.50 11.00 L 2.50 10.00 L 1.50 9.00 L 1.50 6.00 L 2.50 5.00 L 2.50 4.00 L 5.00 1.50 L 7.00 1.50 L 8.00 0.50 L 55.00 0.50 L 56.00 1.50 L 58.00 1.50 L 59.00 2.50 L 60.00 2.50 L 61.50 4.00 L 61.50 10.00 L 60.50 11.00 L 60.50 12.00 L 60.00 12.50 L 59.00 12.50 L 58.00 13.50 L 55.00 13.50 L 54.00 14.50 L 35.00 14.50 L 34.50 15.00 L 34.50 16.00 L 35.00 16.50 L 61.00 16.50 L 62.50 18.00 L 62.50 21.00 L 62.00 21.50 L 35.00 21.50 L 34.50 22.00 L 34.50 24.00 L 35.00 24.50 L 62.00 24.50 L 62.50 25.00 L 62.50 29.00 L 62.00 29.50 L 35.00 29.50 L 34.50 30.00 L 34.50 35.00 L 36.00 36.50 L 36.50 36.00 L 36.50 34.00 L 38.00 32.50 L 55.00 32.50 L 56.00 33.50 L 57.00 33.50 L 60.50 37.00 L 60.50 38.00 L 61.50 39.00 L 61.50 61.00 Z M 15.50 9.00 L 15.50 7.00 L 15.00 6.50 L 7.00 6.50 L 6.50 7.00 L 6.50 8.00 L 7.00 8.50 L 8.00 8.50 L 9.00 9.50 L 15.00 9.50 Z M 28.50 9.00 L 28.50 7.00 L 28.00 6.50 L 21.00 6.50 L 20.50 7.00 L 20.50 9.00 L 21.00 9.50 L 28.00 9.50 Z M 42.50 9.00 L 42.50 7.00 L 42.00 6.50 L 35.00 6.50 L 34.50 7.00 L 34.50 9.00 L 35.00 9.50 L 42.00 9.50 Z M 54.50 9.00 L 55.00 8.50 L 56.00 8.50 L 56.50 8.00 L 56.50 7.00 L 56.00 6.50 L 49.00 6.50 L 48.50 7.00 L 48.50 9.00 L 49.00 9.50 L 54.00 9.50 Z M 53.00 61.50 L 10.00 61.50 L 8.50 60.00 L 8.50 58.00 L 10.00 56.50 L 29.00 56.50 L 29.50 56.00 L 29.50 54.00 L 29.00 53.50 L 11.00 53.50 L 9.50 52.00 L 9.50 49.00 L 11.00 47.50 L 29.00 47.50 L 29.50 47.00 L 29.50 46.00 L 30.00 45.50 L 31.00 45.50 L 32.00 44.50 L 35.00 47.50 L 52.00 47.50 L 53.50 49.00 L 53.50 52.00 L 52.00 53.50 L 35.00 53.50 L 34.50 54.00 L 34.50 56.00 L 35.00 56.50 L 54.00 56.50 L 54.50 57.00 L 54.50 60.00 Z" fill="#c8523c" fill-rule="evenodd"/>
</svg>
